PathFileType	4	(X/Y/Z)	/Volumes/GoogleDrive/My Drive/Research/Stanford/Projects/Digital Athlete Project/Sprinting/Sprint Simulation/sprinter/subjects/JA1/experimental_data/TRC/static.trc
DataRate	CameraRate	NumFrames	NumMarkers	Units	OrigDataRate	OrigDataStartFrame	OrigNumFrames
250.000000	250.000000	4	57	mm	250.000000	1	646
Frame#	Time	C7			RSH			LSH			MAN			T7			LARM			LELB			LFOREARM			LWR			RARM			RELB			RFOREARM			RWR			RASI			LASI			SACR			P1			P2			P3			LTHLP			LTHLD			LTHAP			LTHAD			LLEPI			LPAT			LMEPI			LTIAP			LTIAD			LTILAT			LLMAL			LMMAL			LHEEL			LMFS			LMFL			LP1MT			LTOE			LP5MT			RTHLP			RTHLD			RTHAP			RTHAD			RLEPI			RPAT			RMEPI			RTIAP			RTIAD			RTILAT			RLMAL			RMMAL			RHEEL			RMFS			RMFL			RP1MT			RTOE			RP5MT			x56			x57			
		X1	Y1	Z1	X2	Y2	Z2	X3	Y3	Z3	X4	Y4	Z4	X5	Y5	Z5	X6	Y6	Z6	X7	Y7	Z7	X8	Y8	Z8	X9	Y9	Z9	X10	Y10	Z10	X11	Y11	Z11	X12	Y12	Z12	X13	Y13	Z13	X14	Y14	Z14	X15	Y15	Z15	X16	Y16	Z16	X17	Y17	Z17	X18	Y18	Z18	X19	Y19	Z19	X20	Y20	Z20	X21	Y21	Z21	X22	Y22	Z22	X23	Y23	Z23	X24	Y24	Z24	X25	Y25	Z25	X26	Y26	Z26	X27	Y27	Z27	X28	Y28	Z28	X29	Y29	Z29	X30	Y30	Z30	X31	Y31	Z31	X32	Y32	Z32	X33	Y33	Z33	X34	Y34	Z34	X35	Y35	Z35	X36	Y36	Z36	X37	Y37	Z37	X38	Y38	Z38	X39	Y39	Z39	X40	Y40	Z40	X41	Y41	Z41	X42	Y42	Z42	X43	Y43	Z43	X44	Y44	Z44	X45	Y45	Z45	X46	Y46	Z46	X47	Y47	Z47	X48	Y48	Z48	X49	Y49	Z49	X50	Y50	Z50	X51	Y51	Z51	X52	Y52	Z52	X53	Y53	Z53	X54	Y54	Z54	X55	Y55	Z55	X56	Y56	Z56	X57	Y57	Z57	
1	0.004000	-679.511108	1568.702148	311.232605	-639.645691	1557.481323	475.931488	-677.332458	1554.918091	156.541779	-529.773071	1481.537964	308.086365	-739.074890	1375.651001	318.357483	-701.815063	1378.064209	39.203732	-723.920471	1254.303833	-18.248838	-680.067749	1145.854004	-105.616013	-661.736023	1021.919983	-167.880829	-660.607300	1388.070679	586.658142	-692.017700	1263.736694	650.980591	-651.472290	1153.140015	735.072144	-635.370544	1030.728516	798.365845	-528.830627	1085.730713	398.143616	-554.491577	1090.014038	182.560379	-725.119324	1135.304077	316.860016	-746.615173	1109.835205	265.448425	-736.832153	1105.986084	371.590759	-771.741028	1052.256226	319.330017	-665.775024	798.488525	106.110741	-662.810364	684.178284	111.149445	-533.463196	781.777832	170.727478	-551.998291	671.823364	174.577271	-658.088440	557.803101	121.525177	-575.446411	553.934937	182.250961	-659.448059	541.020813	247.536560	-643.442993	381.760925	187.724045	-659.511841	243.893372	181.010010	-694.487183	320.815338	107.903908	-701.446655	102.650093	121.455994	-680.244385	113.152023	214.541153	-765.453613	61.446186	165.880249	-600.370728	94.301788	169.600861	-628.633606	69.456512	107.164688	-553.122986	46.338718	202.694061	-497.675781	58.245506	164.277542	-576.848389	35.760529	78.530342	-630.423584	825.456177	512.773682	-634.283569	711.803528	508.135681	-527.064331	781.830383	422.872528	-548.309204	685.628906	419.646515	-652.193909	560.030212	489.195892	-584.112366	550.567810	425.589844	-685.357727	543.903442	366.074585	-658.230713	344.093201	419.536560	-672.893250	218.182571	414.102631	-693.623413	338.927124	506.338470	-695.116699	103.224144	481.840881	-684.328430	112.844223	387.725037	-765.392090	59.578274	441.243347	-592.072876	97.592461	432.116608	-629.156067	69.741417	491.087799	-554.236694	49.231167	388.506378	-493.829254	58.657120	426.240601	-569.820435	40.675060	515.889771	-652.418884	958.930542	-199.526932	-626.365845	962.271729	833.761963
2	0.008000	-684.359619	1570.374756	312.548737	-639.692932	1557.462769	475.913391	-677.426025	1554.912109	156.558365	-529.849060	1481.520630	308.035278	-739.133484	1375.659302	318.415833	-701.894043	1378.059937	39.210388	-724.026855	1254.271362	-18.191223	-680.171326	1145.815918	-105.590469	-661.825806	1021.907166	-167.808441	-660.598267	1388.060547	586.672913	-692.057556	1263.693481	651.009277	-651.484314	1153.068970	735.030396	-635.377747	1030.681641	798.326904	-528.903992	1085.699463	398.131470	-554.573486	1090.033325	182.581726	-725.173157	1135.297729	316.928467	-746.696655	1109.807861	265.478821	-737.058350	1106.011475	371.616211	-771.808960	1052.266357	319.372040	-665.853699	798.488159	106.110794	-662.855225	684.180115	111.175781	-533.587158	781.829651	170.872177	-552.093750	671.894470	174.681046	-658.103638	557.825378	121.618408	-575.536438	554.108521	182.287506	-659.466431	541.067810	247.589371	-643.488464	381.748596	187.781265	-659.532349	243.820099	180.921463	-694.486450	320.827667	107.901176	-701.503906	102.634590	121.467995	-680.261658	113.202209	214.581238	-765.432983	61.392799	165.776749	-600.357544	94.355240	169.608368	-628.603027	69.456230	107.157661	-553.099854	46.388958	202.818848	-497.616608	58.254166	164.082474	-576.739441	35.811874	78.509003	-630.431763	825.481445	512.823669	-634.295349	711.777710	508.117859	-527.127930	781.834167	422.883209	-548.303772	685.645752	419.650085	-652.177429	560.018555	489.198822	-584.119934	550.589905	425.563477	-685.373535	543.903931	366.072693	-658.235229	344.059906	419.544220	-672.920166	218.167892	414.105347	-693.698547	338.901215	506.344360	-694.953735	103.353119	481.993622	-684.351379	112.836800	387.754028	-765.386414	59.525143	441.239807	-592.096802	97.561562	432.067932	-629.190613	69.718620	491.028748	-554.214172	49.294041	388.482330	-493.835358	58.699715	426.209412	-569.837891	40.678822	515.864502	-652.501709	958.930542	-199.430725	-626.370361	962.238342	833.724548
3	0.012000	-684.431702	1570.329956	312.515839	-639.757446	1557.459229	475.930847	-677.475098	1554.911011	156.540710	-529.973877	1481.532959	308.099915	-739.192810	1375.637451	318.369598	-701.989929	1378.054688	39.242374	-724.124573	1254.283203	-18.173216	-680.296570	1145.823853	-105.522957	-661.893616	1021.887451	-167.824982	-660.661133	1388.054321	586.685730	-692.084290	1263.689697	650.981628	-651.496887	1153.053467	735.016113	-635.371887	1030.659912	798.303955	-528.970459	1085.747192	398.138489	-554.663025	1090.025391	182.602158	-725.278809	1135.284424	316.918182	-746.735107	1109.812988	265.560242	-731.711609	1105.169556	370.896454	-771.864563	1052.246338	319.471527	-665.932251	798.504395	106.123627	-662.920898	684.176819	111.200737	-533.646484	781.874817	170.862747	-552.223572	671.927856	174.710754	-658.160767	557.858215	121.530930	-575.651733	554.271179	182.357849	-659.516296	541.089111	247.591034	-643.485596	381.738129	187.790100	-659.604370	243.799210	181.163757	-694.491028	320.833740	107.912376	-701.470886	102.621597	121.462799	-680.266235	113.136131	214.474380	-765.455261	61.391781	165.877502	-600.331848	94.426315	169.569336	-628.602356	69.462906	107.135933	-553.181519	46.335835	202.699020	-497.698883	58.281910	164.237427	-576.828064	35.800190	78.566620	-630.503601	825.460083	512.849670	-634.310059	711.777466	508.149170	-527.158630	781.839172	422.825897	-548.389160	685.608704	419.660980	-652.185913	560.069153	489.332977	-584.139221	550.592773	425.562805	-685.392517	543.904175	366.091888	-658.209229	344.108887	419.542267	-672.902100	218.154755	414.063080	-693.683411	338.873322	506.352234	-695.014465	103.304611	481.923004	-684.196777	112.872246	387.619812	-765.388794	59.568230	441.242920	-592.154053	97.622398	432.155640	-629.218445	69.719528	491.072266	-554.242859	49.281357	388.521027	-493.870819	58.700359	426.213806	-569.832581	40.668415	515.886169	-652.540283	958.896790	-199.489990	-626.354187	962.213135	833.696716
4	0.016000	-679.740540	1568.540283	311.427429	-639.823975	1557.435913	476.009369	-677.580322	1554.876953	156.598160	-530.015869	1481.535156	308.131226	-739.283447	1375.643066	318.361938	-702.109314	1378.050903	39.286079	-724.233337	1254.234863	-18.150822	-680.448181	1145.787109	-105.406822	-662.012390	1021.845337	-167.766403	-660.709839	1388.013428	586.708618	-692.132202	1263.651489	651.001770	-651.504761	1153.062866	735.051697	-635.376282	1030.639404	798.303406	-529.072754	1085.744019	398.187775	-554.731812	1089.979004	182.602112	-725.320435	1135.260498	316.946228	-746.817810	1109.766724	265.625610	-737.037842	1105.923950	371.692444	-771.936157	1052.256470	319.512115	-666.014343	798.488647	106.141602	-663.007263	684.226807	111.221153	-533.685547	781.916748	170.877716	-552.316284	671.980652	174.842407	-658.207092	557.912170	121.587311	-575.750549	554.357605	182.304565	-659.531555	541.092651	247.600937	-643.529541	381.709412	187.852112	-659.647034	243.825623	181.215179	-694.510315	320.821381	107.950958	-701.465698	102.639473	121.498329	-680.371460	113.117188	214.460434	-765.468567	61.493923	165.968460	-600.365967	94.331726	169.617706	-628.590210	69.461395	107.144295	-553.161499	46.338749	202.732880	-497.747101	58.274948	164.261200	-576.796631	35.803524	78.531677	-630.501831	825.468750	512.859558	-634.341125	711.773743	508.179626	-527.215210	781.866699	422.900543	-548.461243	685.613342	419.662109	-652.179688	559.959290	489.197021	-584.193481	550.592896	425.543732	-685.412415	543.904480	366.139191	-658.233032	344.109589	419.554108	-672.972961	218.128937	414.166412	-693.686340	338.882446	506.357147	-695.124329	103.252968	481.830872	-684.338501	112.806396	387.764587	-765.378906	59.555744	441.237274	-592.223145	97.663918	432.191223	-629.202759	69.713692	491.020233	-554.228088	49.198765	388.572205	-493.884613	58.722534	426.197449	-569.839905	40.675003	515.868530	-652.642395	958.851929	-199.460663	-626.356628	962.175842	833.675964
